<svg xmlns="http://www.w3.org/2000/svg" viewBox="0 0 64 64" role="img" aria-labelledby="title">
  <title id="title">ikAnimeList</title>
  <defs>
    <linearGradient id="g" x1="8" y1="6" x2="56" y2="60" gradientUnits="userSpaceOnUse">
      <stop stop-color="#8b5cf6"/>
      <stop offset="1" stop-color="#d946ef"/>
    </linearGradient>
  </defs>
  <rect width="64" height="64" rx="18" fill="url(#g)"/>
  <path fill="#fff" d="M17 17.5c0-2 1.6-3.5 3.6-3.5 5 0 8.8 1.6 11.4 4.7C34.6 15.6 38.4 14 43.4 14c2 0 3.6 1.5 3.6 3.5v28.3c0 1.1-.9 2-2 2-5.4 0-9.3 1.3-11.8 4.1a1.6 1.6 0 0 1-2.4 0C28.3 49.1 24.4 47.8 19 47.8c-1.1 0-2-.9-2-2V17.5Zm14.3 6.3c-2.2-2.7-5.2-4.2-9.3-4.6v25.2c3.9.3 7 1.4 9.3 3.3V23.8Zm10.7-4.6c-4.1.4-7.1 1.9-9.3 4.6v23.9c2.3-1.9 5.4-3 9.3-3.3V19.2Z"/>
  <circle cx="45" cy="17" r="5" fill="#fef3c7"/>
</svg>
